# xmcd
#
# Track frame offsets: 
#        150
#        23052
#        46843
#        74978
#        94861
#        115538
#        136822
#        152185
#        177968
#        197317
#        215822
#        242002
#        260145
#
# Disc length: 3639 seconds
#
# Revision: 0
# Processed by: cddbd v1.5.2PL0 Copyright (c) Steve Scherf et al.
# Submitted via: ExactAudioCopy v1.0b3
#
DISCID=b90e350d
DTITLE=Various Artist - Ke Tu Dem Do
DYEAR=1900
DGENRE=
TTITLE0=Huong Lan - Nguoi ngoai pho
TTITLE1=Thanh Tuyen - Truoc gio tam biet
TTITLE2=Thanh Phong - Nguoi em xom dao
TTITLE3=Huong Lan, Duy Quang - Truc dao
TTITLE4=Huy Sinh - Bai hat nay cho em
TTITLE5=Giao Linh - Tu gia tho ngay
TTITLE6=Huong Lan, Duy Quang - Nhung nguoi vuot gian kho
TTITLE7=Giao Linh - Giong ca di vang
TTITLE8=Thanh Phong - Tinh nguoi dau non
TTITLE9=Huy Sinh - No va toi
TTITLE10=Thanh Tuyen - Ke tu dem do
TTITLE11=Huong Lan - Tra lai thoi gian
TTITLE12=hoa tau - Xin con goi ten nhau
EXTD=
EXTT0=
EXTT1=
EXTT2=
EXTT3=
EXTT4=
EXTT5=
EXTT6=
EXTT7=
EXTT8=
EXTT9=
EXTT10=
EXTT11=
EXTT12=
PLAYORDER=
